<svg xmlns="http://www.w3.org/2000/svg" width="512" height="512" viewBox="0 0 512 512"> <defs> <linearGradient id="sky" x1="0" y1="0" x2="0" y2="1"> <stop offset="0" stop-color="#4fc3cf"/><stop offset=".45" stop-color="#9fe3d6"/><stop offset=".8" stop-color="#ffe9ad"/><stop offset="1" stop-color="#ffd99a"/> </linearGradient> <radialGradient id="halo" cx=".5" cy=".5" r=".5"> <stop offset="0" stop-color="#fffbe8"/><stop offset=".62" stop-color="#fff6e0" stop-opacity=".95"/><stop offset="1" stop-color="#fff6e0" stop-opacity="0"/> </radialGradient> <linearGradient id="roof" x1="0" y1="0" x2="0" y2="1"> <stop offset="0" stop-color="#e9a356"/><stop offset="1" stop-color="#b9652d"/> </linearGradient> <linearGradient id="gold" x1="0" y1="0" x2="0" y2="1"> <stop offset="0" stop-color="#ffe58a"/><stop offset=".55" stop-color="#ffc83d"/><stop offset="1" stop-color="#f3a21a"/> </linearGradient> <linearGradient id="wall" x1="0" y1="0" x2="0" y2="1"> <stop offset="0" stop-color="#fffaf0"/><stop offset="1" stop-color="#ffe9b8"/> </linearGradient> </defs> <clipPath id="r"><rect width="512" height="512" rx="112"/></clipPath><g clip-path="url(#r)"> <rect width="512" height="512" fill="url(#sky)"/> <circle cx="256" cy="236" r="190" fill="url(#halo)"/> <path d="M368 92 l6 14 14 6 -14 6 -6 14 -6 -14 -14 -6 14 -6 Z" fill="#fff" opacity=".95"/> <path d="M124 150 l4 9 9 4 -9 4 -4 9 -4 -9 -9 -4 9 -4 Z" fill="#fff" opacity=".85"/> <path d="M0 424 Q128 392 256 410 T512 404 V512 H0 Z" fill="#8fdc6a"/> <path d="M0 456 Q150 430 300 452 T512 446 V512 H0 Z" fill="#5cb84a"/> <g transform="translate(256 262) scale(1) translate(-256 -262)" stroke="#5a3a1e" stroke-linejoin="round" stroke-linecap="round">  <path d="M78 334 L168 264 H344 L434 334 Q256 350 78 334 Z" fill="url(#roof)" stroke-width="9"/> <path d="M110 324 Q256 336 402 324" fill="none" stroke="#f6c27a" stroke-width="6" opacity=".9"/>  <rect x="150" y="326" width="212" height="88" rx="10" fill="url(#wall)" stroke-width="9"/> <rect x="174" y="346" width="30" height="42" rx="15" fill="#ffd45a" stroke-width="6"/> <rect x="308" y="346" width="30" height="42" rx="15" fill="#ffd45a" stroke-width="6"/> <path d="M230 414 V372 a26 26 0 0 1 52 0 V414 Z" fill="#7a4a22" stroke-width="7"/> <rect x="124" y="404" width="264" height="24" rx="10" fill="#f0c874" stroke-width="9"/>  <rect x="190" y="232" width="132" height="36" rx="5" fill="url(#wall)" stroke-width="8"/> <path d="M214 240 v20 M238 240 v20 M262 240 v20 M286 240 v20 M298 240 v20" stroke="#c9a468" stroke-width="5" opacity=".8"/> <path d="M140 250 L206 198 H306 L372 250 Q256 262 140 250 Z" fill="url(#roof)" stroke-width="9"/> <path d="M168 242 Q256 250 344 242" fill="none" stroke="#f6c27a" stroke-width="5" opacity=".9"/>  <rect x="220" y="172" width="72" height="30" rx="4" fill="url(#wall)" stroke-width="7"/> <path d="M190 186 L256 120 L322 186 Q256 194 190 186 Z" fill="url(#roof)" stroke-width="9"/> <path d="M232 150 L256 128" stroke="#f6c27a" stroke-width="5" fill="none" opacity=".9"/>  <g stroke="#a85c0a" stroke-width="6" fill="url(#gold)"> <path d="M232 126 Q256 102 280 126 Z"/> <rect x="249" y="92" width="14" height="22" rx="4"/> <circle cx="256" cy="86" r="15"/> <path d="M256 44 C268 58 270 68 256 76 C242 68 244 58 256 44 Z"/> <path d="M241 80 C230 76 228 66 234 60 M271 80 C282 76 284 66 278 60" fill="none"/> </g> <circle cx="250" cy="82" r="4" fill="#fff6c0" stroke="none"/> </g></g></svg>
